<?xml version="1.0" encoding="utf-8"?><!-- Uploaded to: SVG Repo, www.svgrepo.com, Generator: SVG Repo Mixer Tools -->
<svg width="800px" height="800px" viewBox="0 0 24 24" id="Layer_1" data-name="Layer 1" xmlns="http://www.w3.org/2000/svg"><defs>
<style>.cls-1{fill:none;stroke:hsl(205deg 16% 77%);stroke-miterlimit:10;stroke-width:1.91px;}</style></defs>
<path  class="cls-1" d="M16.88,8.57l1.61-3.76a2.45,2.45,0,0,0,.19-.93A2.37,2.37,0,0,0,16.31,1.5H7.69A2.37,2.37,0,0,0,5.32,3.88a2.45,2.45,0,0,0,.19.93L7.12,8.57"/>
<path   class="cls-1" d="M12,7.23a9.55,9.55,0,0,0-9.55,9.54c0,.12,0,.23,0,.34s0,.21,0,.31a8.64,8.64,0,0,0,.6,3.18,2.86,2.86,0,0,0,.79,1.12A3.37,3.37,0,0,0,6,22.5H18a3.33,3.33,0,0,0,2.15-.77,0,0,0,0,0,0,0,2.72,2.72,0,0,0,.77-1.09,8.59,8.59,0,0,0,.61-3.37v-.07c0-.13,0-.27,0-.42A9.55,9.55,0,0,0,12,7.23Z"/>
<line fill=""  class="cls-1" x1="7.23" y1="12" x2="7.23" y2="19.64"/>
<path  class="cls-1" d="M10.09,12V13a2.86,2.86,0,0,1-2.86,2.87h0a2.86,2.86,0,0,1,2.86,2.86v1"/>
<path  class="cls-1" d="M14.86,15.82h1.91v.95a1.9,1.9,0,0,1-1.91,1.91h0A1.91,1.91,0,0,1,13,16.77V14.86A1.92,1.92,0,0,1,14.86,13h1.91"/>
</svg>