<?xml version="1.0" encoding="utf-8"?>

<!DOCTYPE svg PUBLIC "-//W3C//DTD SVG 1.1//EN" "http://www.w3.org/Graphics/SVG/1.1/DTD/svg11.dtd">
<!-- Uploaded to: SVG Repo, www.svgrepo.com, Generator: SVG Repo Mixer Tools -->
<svg version="1.1" id="Layer_1" xmlns="http://www.w3.org/2000/svg" xmlns:xlink="http://www.w3.org/1999/xlink" 
	 width="800px" height="800px" viewBox="0 0 70 70"  xml:space="preserve">
<g>
	<path d="M58.806,13.644l2.813-2.813l1.656,1.656c0.391,0.391,0.902,0.586,1.414,0.586s1.023-0.195,1.414-0.586
		c0.781-0.781,0.781-2.047,0-2.828l-6-6c-0.781-0.781-2.047-0.781-2.828,0s-0.781,2.047,0,2.828l1.516,1.516l-2.841,2.841
		C50.332,5.963,43.008,3,35,3c-7.98,0-15.281,2.943-20.892,7.792l-3.036-3.036l1.342-1.342c0.781-0.781,0.781-2.047,0-2.828
		s-2.047-0.781-2.828,0l-6,6c-0.781,0.781-0.781,2.047,0,2.828C3.977,12.805,4.488,13,5,13s1.023-0.195,1.414-0.586l1.83-1.83
		l3.001,3.001C6.124,19.261,3,26.772,3,35c0,17.645,14.355,32,32,32s32-14.355,32-32C67,26.8,63.896,19.313,58.806,13.644z
		 M55.49,54.076l-1.398-1.398c-0.391-0.391-1.023-0.391-1.414,0s-0.391,1.023,0,1.414l1.398,1.398
		c-4.868,4.533-11.351,7.349-18.493,7.495v-2.34c0-0.553-0.447-1-1-1s-1,0.447-1,1v2.318c-6.813-0.339-12.981-3.117-17.659-7.474
		l1.398-1.398c0.391-0.391,0.391-1.023,0-1.414s-1.023-0.391-1.414,0l-1.398,1.398c-4.534-4.868-7.349-11.351-7.496-18.493h1.914
		c0.553,0,1-0.447,1-1s-0.447-1-1-1H7.036c0.34-6.813,3.118-12.98,7.475-17.658l1.397,1.397c0.195,0.195,0.451,0.293,0.707,0.293
		s0.512-0.098,0.707-0.293c0.391-0.391,0.391-1.023,0-1.414l-1.397-1.397c4.678-4.357,10.845-7.135,17.658-7.475v1.61
		c0,0.553,0.447,1,1,1s1-0.447,1-1V7.015c7.142,0.146,13.625,2.962,18.492,7.496l-1.397,1.397c-0.391,0.391-0.391,1.023,0,1.414
		c0.195,0.195,0.451,0.293,0.707,0.293s0.512-0.098,0.707-0.293l1.397-1.397c4.357,4.678,7.136,10.845,7.475,17.658h-2.035
		c-0.553,0-1,0.447-1,1s0.447,1,1,1h2.057C62.839,42.726,60.023,49.208,55.49,54.076z"/>
	<path d="M39.35,37.936c0.568-0.838,0.9-1.849,0.9-2.936c0-1.951-1.083-3.638-2.667-4.542v-9.951c0-1.837-1.29-3.223-3-3.223
		s-3,1.386-3,3.223v10.139c0,0.122,0.029,0.236,0.069,0.345C30.5,31.954,29.75,33.384,29.75,35c0,1.021,0.305,1.967,0.812,2.774
		L19.668,48.668c-0.391,0.391-0.391,1.023,0,1.414c0.195,0.195,0.451,0.293,0.707,0.293s0.512-0.098,0.707-0.293l10.845-10.845
		c0.866,0.63,1.922,1.013,3.073,1.013c1.087,0,2.097-0.332,2.936-0.9l3.857,3.857c0.195,0.195,0.451,0.293,0.707,0.293
		s0.512-0.098,0.707-0.293c0.391-0.391,0.391-1.023,0-1.414L39.35,37.936z M33.583,20.507c0-0.564,0.262-1.223,1-1.223
		s1,0.658,1,1.223v9.302C35.389,29.787,35.2,29.75,35,29.75c-0.494,0-0.963,0.091-1.417,0.219V20.507z M31.75,35
		c0-1.795,1.455-3.25,3.25-3.25s3.25,1.455,3.25,3.25c0,0.889-0.358,1.692-0.937,2.279c-0.006,0.006-0.015,0.008-0.021,0.014
		s-0.008,0.015-0.014,0.021C36.692,37.892,35.889,38.25,35,38.25C33.205,38.25,31.75,36.795,31.75,35z"/>
</g>
</svg>