<?xml version="1.0" encoding="iso-8859-1"?>
<!-- Uploaded to: SVG Repo, www.svgrepo.com, Generator: SVG Repo Mixer Tools -->
<svg height="800px" width="800px" version="1.1" id="Layer_1" xmlns="http://www.w3.org/2000/svg" xmlns:xlink="http://www.w3.org/1999/xlink" 
	 viewBox="0 0 512 512" xml:space="preserve">
<circle style="fill:#D35933;" cx="256" cy="256" r="256"/>
<path style="fill:#B54324;" d="M422.128,199.111l0.064,68.382H196.382l-70.765-68.382l-5.03,68.382h-12.124v-6.896l-30.975,3.215
	l17.586,17.73l-5.198,31.346l197.225,197.225c117.231-14.202,210.022-107.63,223.258-225.156L422.128,199.111z"/>
<path style="fill:#FFFFFF;" d="M280.381,295.65L280.381,295.65c-3.27,0-6.378-1.429-8.509-3.913L256,273.218l-15.872,18.518
	c-2.129,2.482-5.237,3.913-8.509,3.913s-6.378-1.429-8.507-3.913l-21.026-24.531H85.333c-6.189,0-11.205-5.017-11.205-11.205
	c0-6.189,5.017-11.205,11.205-11.205h121.904c3.27,0,6.378,1.429,8.507,3.913l15.875,18.52l15.872-18.52
	c2.129-2.482,5.237-3.913,8.509-3.913c3.272,0,6.378,1.429,8.509,3.913l15.872,18.52l15.875-18.52
	c2.127-2.482,5.236-3.913,8.507-3.913h121.901c6.189,0,11.205,5.017,11.205,11.205c0,6.189-5.017,11.205-11.205,11.205H309.915
	l-21.028,24.531C286.76,294.221,283.651,295.65,280.381,295.65z"/>
<path style="fill:#D0D1D3;" d="M290.497,255.426l-10.116,11.802l-10.114-11.802h-28.532l-10.114,11.802l-10.116-11.802H74.157
	c-0.01,0.191-0.029,0.379-0.029,0.574c0,6.189,5.017,11.205,11.205,11.205h116.752l21.028,24.531
	c2.127,2.482,5.236,3.913,8.507,3.913c3.272,0,6.378-1.429,8.509-3.913l15.872-18.518l15.872,18.518
	c2.129,2.482,5.237,3.913,8.509,3.913s6.378-1.429,8.507-3.913l21.025-24.531h116.752c6.189,0,11.205-5.017,11.205-11.205
	c0-0.195-0.019-0.383-0.029-0.574H290.497z"/>
<g>
	<path style="fill:#3A3838;" d="M416.035,315.475h-23.561c-4.68,0-8.476-3.794-8.476-8.476V205c0-4.68,3.794-8.476,8.476-8.476
		h23.561c4.68,0,8.476,3.794,8.476,8.476v101.998C424.512,311.68,420.717,315.475,416.035,315.475z"/>
	<path style="fill:#3A3838;" d="M119.524,315.475H95.965c-4.68,0-8.476-3.794-8.476-8.476V205c0-4.68,3.794-8.476,8.476-8.476
		h23.561c4.68,0,8.476,3.794,8.476,8.476v101.998C128,311.68,124.206,315.475,119.524,315.475z"/>
</g>
<g>
	<path style="fill:#272525;" d="M384,255.426V307c0,4.68,3.794,8.476,8.476,8.476h23.561c4.68,0,8.476-3.794,8.476-8.476v-51.574
		L384,255.426L384,255.426z"/>
	<path style="fill:#272525;" d="M87.488,255.426V307c0,4.68,3.794,8.476,8.476,8.476h23.561c4.68,0,8.476-3.794,8.476-8.476v-51.574
		L87.488,255.426L87.488,255.426z"/>
</g>
</svg>